<svg width="220" height="238" viewBox="0 0 220 238" fill="none" xmlns="http://www.w3.org/2000/svg">
<g id="Group 32">
<g id="Vector 1" filter="url(#filter0_f_111_1977)">
<path d="M137.509 117.718L81.5216 150.736L135.117 180.405L189.669 150.736L137.509 117.718Z" fill="black" fill-opacity="0.06"/>
</g>
<g id="Vector 3" filter="url(#filter1_f_111_1977)">
<path d="M20.7485 91.8774L4 102.405L49.9387 129.203L69.0798 118.196L20.7485 91.8774Z" fill="black" fill-opacity="0.06"/>
</g>
<g id="Vector 2" filter="url(#filter2_f_111_1977)">
<path d="M120.282 193.326L72.908 219.166L27.9264 193.326L40.3681 179.927L101.62 183.755L120.282 193.326Z" fill="black" fill-opacity="0.06"/>
</g>
<g id="Vector 4" filter="url(#filter3_f_111_1977)">
<path d="M196.847 196.675L150.908 223.951L169.092 234L215.509 207.202L196.847 196.675Z" fill="black" fill-opacity="0.06"/>
</g>
<g id="Group 31">
<g id="Group">
<path id="Vector" d="M134.498 112.958L90.9187 138.113L105.454 146.498L149.033 121.343L134.498 112.958Z" fill="#EED3AE"/>
<g id="Group_2">
<path id="Vector_2" d="M90.9187 138.112V147.028L105.454 155.413V146.497L90.9187 138.112Z" fill="#A38666"/>
<path id="Vector_3" d="M149.033 121.343V130.246L105.454 155.414V146.498L149.033 121.343Z" fill="#AD8D66"/>
</g>
</g>
<g id="Group_3">
<path id="Vector_4" d="M164.439 130.258L120.872 155.413L135.394 163.798L178.974 138.643L164.439 130.258Z" fill="#EED3AE"/>
<g id="Group_4">
<path id="Vector_5" d="M120.872 155.412V164.327L135.394 172.712V163.797L120.872 155.412Z" fill="#B99E79"/>
<path id="Vector_6" d="M178.974 138.643V147.558L135.394 172.713V163.798L178.974 138.643Z" fill="#AD8D66"/>
</g>
</g>
<g id="Group_5">
<path id="Vector_7" d="M197.335 188.195L153.756 213.35L168.291 221.735L211.857 196.58L197.335 188.195Z" fill="#EED3AE"/>
<g id="Group_6">
<path id="Vector_8" d="M153.756 213.35V222.265L168.29 230.65V221.735L153.756 213.35Z" fill="#B99E79"/>
<path id="Vector_9" d="M211.857 196.58V205.495L168.291 230.65V221.735L211.857 196.58Z" fill="#AD8D66"/>
</g>
</g>
<g id="Group_7">
<path id="Vector_10" d="M136.278 103.676L179.858 128.843L165.335 137.228L121.756 112.061L136.278 103.676Z" fill="#EED3AE"/>
<g id="Group_8">
<path id="Vector_11" d="M179.858 128.844V137.747L165.336 146.132V137.229L179.858 128.844Z" fill="#A3825F"/>
<path id="Vector_12" d="M121.756 112.062V120.977L165.335 146.132V137.23L121.756 112.062Z" fill="#B99E79"/>
</g>
</g>
<g id="Group_9">
<path id="Vector_13" d="M106.337 120.976L149.917 146.144L135.394 154.529L91.8152 129.374L106.337 120.976Z" fill="#EED3AE"/>
<g id="Group_10">
<path id="Vector_14" d="M149.917 146.143V155.046L135.395 163.443V154.528L149.917 146.143Z" fill="#AD8D66"/>
<path id="Vector_15" d="M91.8152 129.374V138.276L135.394 163.444V154.529L91.8152 129.374Z" fill="#B99E79"/>
</g>
</g>
<g id="Group_11">
<path id="Vector_16" d="M133.248 95.3921L89.6689 120.547L104.191 128.932L147.77 103.777L133.248 95.3921Z" fill="#EED3AE"/>
<g id="Group_12">
<path id="Vector_17" d="M89.6685 120.547V129.463L104.191 137.848V128.932L89.6685 120.547Z" fill="#B99E79"/>
<path id="Vector_18" d="M147.77 103.777V112.692L104.191 137.847V128.932L147.77 103.777Z" fill="#AD8D66"/>
</g>
</g>
<g id="Group_13">
<path id="Vector_19" d="M163.807 109.763L120.999 136.193L135.761 144.149L178.582 117.718L163.807 109.763Z" fill="#EED3AE"/>
<g id="Group_14">
<path id="Vector_20" d="M120.999 136.192L121.264 145.107L136.026 153.063L135.761 144.148L120.999 136.192Z" fill="#AF9371"/>
<path id="Vector_21" d="M178.582 117.718L178.847 126.621L136.026 153.064L135.76 144.149L178.582 117.718Z" fill="#967353"/>
</g>
</g>
<g id="Group_15">
<path id="Vector_22" d="M136.278 84.8604L179.858 110.015L165.335 118.413L121.756 93.2453L136.278 84.8604Z" fill="#EED3AE"/>
<g id="Group_16">
<path id="Vector_23" d="M179.858 110.016V118.931L165.336 127.316V118.413L179.858 110.016Z" fill="#AD8D66"/>
<path id="Vector_24" d="M121.756 93.2446V102.16L165.335 127.315V118.412L121.756 93.2446Z" fill="#B99E79"/>
</g>
</g>
<g id="Group_17">
<path id="Vector_25" d="M106.337 102.16L149.917 127.328L135.394 135.713L91.8152 110.545L106.337 102.16Z" fill="#EED3AE"/>
<g id="Group_18">
<path id="Vector_26" d="M149.917 127.316V136.231L135.395 144.616V135.714L149.917 127.316Z" fill="#AD8D66"/>
<path id="Vector_27" d="M91.8152 110.546V119.461L135.394 144.616V135.714L91.8152 110.546Z" fill="#B99E79"/>
</g>
</g>
<g id="Group_19">
<path id="Vector_28" d="M137.011 75.3135L93.4318 100.481L107.967 108.866L151.546 83.6985L137.011 75.3135Z" fill="#EED3AE"/>
<g id="Group_20">
<path id="Vector_29" d="M93.4316 100.468V109.384L107.966 117.769V108.866L93.4316 100.468Z" fill="#AF9371"/>
<path id="Vector_30" d="M151.546 83.6987V92.6141L107.966 117.769V108.866L151.546 83.6987Z" fill="#AD8D66"/>
</g>
</g>
<g id="Group_21">
<path id="Vector_31" d="M164.439 92.6133L120.872 117.781L135.394 126.166L178.974 100.998L164.439 92.6133Z" fill="#EED3AE"/>
<g id="Group_22">
<path id="Vector_32" d="M120.872 117.782V126.684L135.394 135.082V126.167L120.872 117.782Z" fill="#B99E79"/>
<path id="Vector_33" d="M178.974 100.998V109.913L135.394 135.081V126.165L178.974 100.998Z" fill="#A3825F"/>
</g>
</g>
<g id="Group_23">
<path id="Vector_34" d="M136.278 66.0444L179.858 91.1994L165.335 99.5844L121.756 74.4294L136.278 66.0444Z" fill="#EED3AE"/>
<g id="Group_24">
<path id="Vector_35" d="M179.858 91.1987V100.114L165.336 108.499V99.5837L179.858 91.1987Z" fill="#967353"/>
<path id="Vector_36" d="M121.756 74.4297V83.3451L165.335 108.5V99.5847L121.756 74.4297Z" fill="#B99E79"/>
</g>
</g>
<g id="Group_25">
<path id="Vector_37" d="M21.6034 82.5488L65.1826 107.704L50.6604 116.089L7.08118 90.9338L21.6034 82.5488Z" fill="#EED3AE"/>
<g id="Group_26">
<path id="Vector_38" d="M65.1827 107.705V116.62L50.6605 125.005V116.09L65.1827 107.705Z" fill="#967353"/>
<path id="Vector_39" d="M7.08118 90.9341V99.8495L50.6604 125.004V116.089L7.08118 90.9341Z" fill="#B99E79"/>
</g>
</g>
<g id="Group_27">
<path id="Vector_40" d="M106.337 83.3442L149.917 108.499L135.394 116.884L91.8152 91.7292L106.337 83.3442Z" fill="#EED3AE"/>
<g id="Group_28">
<path id="Vector_41" d="M149.917 108.499V117.414L135.395 125.799V116.884L149.917 108.499Z" fill="#AD8D66"/>
<path id="Vector_42" d="M91.8152 91.731V100.646L135.394 125.801V116.886L91.8152 91.731Z" fill="#A38666"/>
</g>
</g>
<g id="Group_29">
<path id="Vector_43" d="M149.475 65.1479L105.895 90.3029L120.418 98.7006L163.997 73.5329L149.475 65.1479Z" fill="#EED3AE"/>
<g id="Group_30">
<path id="Vector_44" d="M105.895 90.3032V99.2186L120.418 107.604V98.7008L105.895 90.3032Z" fill="#B99E79"/>
<path id="Vector_45" d="M163.997 73.5322V82.4476L120.418 107.603V98.6999L163.997 73.5322Z" fill="#AD8D66"/>
</g>
</g>
<g id="Group_31">
<path id="Vector_46" d="M136.278 47.2285L179.858 72.3835L165.335 80.7685L121.756 55.6135L136.278 47.2285Z" fill="#EED3AE"/>
<g id="Group_32">
<path id="Vector_47" d="M179.858 72.3848V81.2875L165.336 89.6851V80.7698L179.858 72.3848Z" fill="#AD8D66"/>
<path id="Vector_48" d="M121.756 55.6133V64.516L165.335 89.6836V80.7683L121.756 55.6133Z" fill="#B99E79"/>
</g>
</g>
<g id="Group_33">
<path id="Vector_49" d="M121.314 55.8794L164.893 81.0344L150.358 89.4194L106.779 64.2644L121.314 55.8794Z" fill="#EED3AE"/>
<g id="Group_34">
<path id="Vector_50" d="M164.893 81.0337V89.9491L150.359 98.3341V89.4187L164.893 81.0337Z" fill="#A3825F"/>
<path id="Vector_51" d="M106.779 64.2632V73.1659L150.358 98.3336V89.4182L106.779 64.2632Z" fill="#B99E79"/>
</g>
</g>
<g id="Group_35">
<path id="Vector_52" d="M106.337 64.5288L149.917 89.6838L135.394 98.0688L91.8152 72.9138L106.337 64.5288Z" fill="#EED3AE"/>
<g id="Group_36">
<path id="Vector_53" d="M149.917 89.6841V98.5995L135.395 106.984V98.0691L149.917 89.6841Z" fill="#AD8D66"/>
<path id="Vector_54" d="M91.8152 72.9146V81.8173L135.394 106.985V98.0695L91.8152 72.9146Z" fill="#AF9371"/>
</g>
</g>
<g id="Group_37">
<path id="Vector_55" d="M134.498 37.6821L90.9187 62.8371L105.454 71.2221L149.033 46.0671L134.498 37.6821Z" fill="#EED3AE"/>
<g id="Group_38">
<path id="Vector_56" d="M90.9187 62.8359V71.7513L105.454 80.1363V71.2209L90.9187 62.8359Z" fill="#B99E79"/>
<path id="Vector_57" d="M149.033 46.0669V54.9696L105.454 80.1373V71.2219L149.033 46.0669Z" fill="#AD8D66"/>
</g>
</g>
<g id="Group_39">
<path id="Vector_58" d="M149.475 46.3315L105.895 71.4865L120.418 79.8715L163.997 54.7165L149.475 46.3315Z" fill="#EED3AE"/>
<g id="Group_40">
<path id="Vector_59" d="M105.895 71.4868V80.4022L120.418 88.7872V79.8718L105.895 71.4868Z" fill="#B99E79"/>
<path id="Vector_60" d="M163.997 54.7168V63.6322L120.418 88.7872V79.8718L163.997 54.7168Z" fill="#AD8D66"/>
</g>
</g>
<g id="Group_41">
<path id="Vector_61" d="M165.702 54.9819L122.122 80.1369L136.645 88.5219L180.224 63.3669L165.702 54.9819Z" fill="#EED3AE"/>
<g id="Group_42">
<path id="Vector_62" d="M122.122 80.1362V89.0516L136.645 97.4366V88.5212L122.122 80.1362Z" fill="#B99E79"/>
<path id="Vector_63" d="M180.224 63.3682V72.2835L136.645 97.4385V88.5232L180.224 63.3682Z" fill="#A3825F"/>
</g>
</g>
<g id="Group_43">
<path id="Vector_64" d="M121.314 37.0498L164.893 62.2174L150.358 70.6024L106.779 45.4348L121.314 37.0498Z" fill="#EED3AE"/>
<g id="Group_44">
<path id="Vector_65" d="M164.893 62.2192V71.122L150.359 79.5196V70.6042L164.893 62.2192Z" fill="#AD8D66"/>
<path id="Vector_66" d="M106.779 45.436V54.3514L150.358 79.519V70.6037L106.779 45.436Z" fill="#B99E79"/>
</g>
</g>
<g id="Group_45">
<path id="Vector_67" d="M134.498 18.853L90.9187 44.0206L105.454 52.4056L149.033 27.2507L134.498 18.853Z" fill="#EED3AE"/>
<g id="Group_46">
<path id="Vector_68" d="M90.9187 44.0215V52.9242L105.454 61.3219V52.4065L90.9187 44.0215Z" fill="#B99E79"/>
<path id="Vector_69" d="M149.033 27.251V36.1537L105.454 61.3213V52.406L149.033 27.251Z" fill="#AD8D66"/>
</g>
</g>
<g id="Group_47">
<path id="Vector_70" d="M149.475 27.5034L105.895 52.671L120.418 61.056L163.997 35.901L149.475 27.5034Z" fill="#EED3AE"/>
<g id="Group_48">
<path id="Vector_71" d="M105.895 52.6714V61.5741L120.418 69.9718V61.0564L105.895 52.6714Z" fill="#B99E79"/>
<path id="Vector_72" d="M163.997 35.8999V44.8026L120.418 69.9703V61.0549L163.997 35.8999Z" fill="#AD8D66"/>
</g>
</g>
<g id="Group_49">
<path id="Vector_73" d="M164.439 36.167L120.872 61.322L135.394 69.707L178.974 44.552L164.439 36.167Z" fill="#EED3AE"/>
<g id="Group_50">
<path id="Vector_74" d="M120.872 61.3218V70.2371L135.394 78.6221V69.7068L120.872 61.3218Z" fill="#A38666"/>
<path id="Vector_75" d="M178.974 44.5527V53.4555L135.394 78.6231V69.7077L178.974 44.5527Z" fill="#AD8D66"/>
</g>
</g>
<g id="Group_51">
<path id="Vector_76" d="M136.278 9.58398L179.858 34.739L165.335 43.1366L121.756 17.969L136.278 9.58398Z" fill="#EED3AE"/>
<g id="Group_52">
<path id="Vector_77" d="M179.858 34.7402V43.6556L165.336 52.0406V43.1379L179.858 34.7402Z" fill="#967353"/>
<path id="Vector_78" d="M121.756 17.9692V26.8846L165.335 52.0396V43.1369L121.756 17.9692Z" fill="#B99E79"/>
</g>
</g>
<g id="Group_53">
<path id="Vector_79" d="M106.337 26.8853L149.917 52.0529L135.394 60.4379L91.8152 35.2702L106.337 26.8853Z" fill="#EED3AE"/>
<g id="Group_54">
<path id="Vector_80" d="M149.917 52.0391V60.9544L135.395 69.3394V60.4367L149.917 52.0391Z" fill="#AD8D66"/>
<path id="Vector_81" d="M91.8152 35.27V44.1854L135.394 69.3404V60.4376L91.8152 35.27Z" fill="#AF9371"/>
</g>
</g>
<g id="Group_55">
<path id="Vector_82" d="M134.498 0.0375977L90.9187 25.2052L105.454 33.5902L149.033 8.42259L134.498 0.0375977Z" fill="#EED3AE"/>
<g id="Group_56">
<path id="Vector_83" d="M90.9187 25.1924V34.1078L105.454 42.4928V33.59L90.9187 25.1924Z" fill="#A38666"/>
<path id="Vector_84" d="M149.033 8.42236V17.3377L105.454 42.4927V33.59L149.033 8.42236Z" fill="#AD8D66"/>
</g>
</g>
<g id="Group_57">
<path id="Vector_85" d="M149.475 8.68799L105.895 33.8556L120.418 42.2406L163.997 17.073L149.475 8.68799Z" fill="#EED3AE"/>
<g id="Group_58">
<path id="Vector_86" d="M105.895 33.856V42.7587L120.418 51.1437V42.241L105.895 33.856Z" fill="#AF9371"/>
<path id="Vector_87" d="M163.997 17.0742V25.9896L120.418 51.1446V42.2418L163.997 17.0742Z" fill="#AD8D66"/>
</g>
</g>
<g id="Group_59">
<path id="Vector_88" d="M164.439 17.3379L120.872 42.5055L135.394 50.8905L178.974 25.7229L164.439 17.3379Z" fill="#EED3AE"/>
<g id="Group_60">
<path id="Vector_89" d="M120.872 42.5054V51.4081L135.394 59.8057V50.8904L120.872 42.5054Z" fill="#B99E79"/>
<path id="Vector_90" d="M178.974 25.7231V34.6385L135.394 59.8061V50.8908L178.974 25.7231Z" fill="#A3825F"/>
</g>
</g>
<g id="Group_61">
<path id="Vector_91" d="M101.097 173.888L57.5173 199.055L72.0395 207.44L115.619 182.273L101.097 173.888Z" fill="#EED3AE"/>
<g id="Group_62">
<path id="Vector_92" d="M57.5173 199.056V207.958L72.0395 216.343V207.441L57.5173 199.056Z" fill="#B99E79"/>
<path id="Vector_93" d="M115.619 182.274V191.189L72.0394 216.344V207.442L115.619 182.274Z" fill="#AD8D66"/>
</g>
</g>
<g id="Group_63">
<path id="Vector_94" d="M123.6 0L165.929 27.226L151.015 34.9038L108.686 7.67783L123.6 0Z" fill="#EED3AE"/>
<g id="Group_64">
<path id="Vector_95" d="M165.929 27.2261L165.5 36.1162L150.586 43.8066L151.015 34.9039L165.929 27.2261Z" fill="#AD8D66"/>
<path id="Vector_96" d="M108.686 7.67773L108.27 16.5805L150.586 43.8065L151.015 34.9037L108.686 7.67773Z" fill="#B99E79"/>
</g>
</g>
<g id="Group_65">
<path id="Vector_97" d="M40.6465 167.838L89.8957 178.105L78.7326 190.619L29.4707 180.34L40.6465 167.838Z" fill="#EED3AE"/>
<g id="Group_66">
<path id="Vector_98" d="M89.8953 178.105L92.6861 186.566L81.5103 199.081L78.7322 190.62L89.8953 178.105Z" fill="#967353"/>
<path id="Vector_99" d="M29.4707 180.34L32.2489 188.814L81.5107 199.08L78.7326 190.62L29.4707 180.34Z" fill="#AF9371"/>
</g>
</g>
</g>
</g>
<defs>
<filter id="filter0_f_111_1977" x="77.5216" y="113.718" width="116.147" height="70.687" filterUnits="userSpaceOnUse" color-interpolation-filters="sRGB">
<feFlood flood-opacity="0" result="BackgroundImageFix"/>
<feBlend mode="normal" in="SourceGraphic" in2="BackgroundImageFix" result="shape"/>
<feGaussianBlur stdDeviation="2" result="effect1_foregroundBlur_111_1977"/>
</filter>
<filter id="filter1_f_111_1977" x="0" y="87.8774" width="73.0798" height="45.3252" filterUnits="userSpaceOnUse" color-interpolation-filters="sRGB">
<feFlood flood-opacity="0" result="BackgroundImageFix"/>
<feBlend mode="normal" in="SourceGraphic" in2="BackgroundImageFix" result="shape"/>
<feGaussianBlur stdDeviation="2" result="effect1_foregroundBlur_111_1977"/>
</filter>
<filter id="filter2_f_111_1977" x="23.9264" y="175.927" width="100.356" height="47.2393" filterUnits="userSpaceOnUse" color-interpolation-filters="sRGB">
<feFlood flood-opacity="0" result="BackgroundImageFix"/>
<feBlend mode="normal" in="SourceGraphic" in2="BackgroundImageFix" result="shape"/>
<feGaussianBlur stdDeviation="2" result="effect1_foregroundBlur_111_1977"/>
</filter>
<filter id="filter3_f_111_1977" x="146.908" y="192.675" width="72.6013" height="45.3252" filterUnits="userSpaceOnUse" color-interpolation-filters="sRGB">
<feFlood flood-opacity="0" result="BackgroundImageFix"/>
<feBlend mode="normal" in="SourceGraphic" in2="BackgroundImageFix" result="shape"/>
<feGaussianBlur stdDeviation="2" result="effect1_foregroundBlur_111_1977"/>
</filter>
</defs>
</svg>
