<svg width="104" height="163" viewBox="0 0 104 163" fill="none" xmlns="http://www.w3.org/2000/svg">
<g filter="url(#filter0_f_111_2583)">
<path d="M53.4626 103.363L4.30243 132.355L51.3617 158.405L99.2614 132.355L53.4626 103.363Z" fill="black" fill-opacity="0.06"/>
</g>
<path d="M50.8184 99.1831L12.5536 121.271L25.3159 128.633L63.5808 106.546L50.8184 99.1831Z" fill="#EED3AE"/>
<path d="M12.5535 121.27V129.098L25.3158 136.461V128.632L12.5535 121.27Z" fill="#A38666"/>
<path d="M63.5809 106.546V114.363L25.316 136.461V128.633L63.5809 106.546Z" fill="#AD8D66"/>
<path d="M77.108 114.374L38.8542 136.461L51.6055 143.823L89.8703 121.736L77.108 114.374Z" fill="#EED3AE"/>
<path d="M38.8542 136.46V144.288L51.6054 151.651V143.822L38.8542 136.46Z" fill="#B99E79"/>
<path d="M89.8703 121.735V129.564L51.6055 151.651V143.823L89.8703 121.735Z" fill="#AD8D66"/>
<path d="M52.3818 91.0322L90.6467 113.131L77.8954 120.493L39.6306 98.3947L52.3818 91.0322Z" fill="#EED3AE"/>
<path d="M90.6468 113.132V120.949L77.8955 128.311V120.494L90.6468 113.132Z" fill="#A3825F"/>
<path d="M39.6305 98.3965V106.225L77.8954 128.312V120.495L39.6305 98.3965Z" fill="#B99E79"/>
<path d="M26.092 106.223L64.3568 128.321L51.6056 135.684L13.3407 113.596L26.092 106.223Z" fill="#EED3AE"/>
<path d="M64.357 128.321V136.138L51.6057 143.512V135.684L64.357 128.321Z" fill="#AD8D66"/>
<path d="M13.3407 113.596V121.413L51.6056 143.512V135.684L13.3407 113.596Z" fill="#B99E79"/>
<path d="M49.7212 83.7588L11.4563 105.846L24.2076 113.209L62.4724 91.1213L49.7212 83.7588Z" fill="#EED3AE"/>
<path d="M11.4559 105.847V113.675L24.2072 121.037V113.209L11.4559 105.847Z" fill="#B99E79"/>
<path d="M62.4721 91.1211V98.9493L24.2072 121.037V113.208L62.4721 91.1211Z" fill="#AD8D66"/>
<path d="M76.5537 96.3774L38.9653 119.585L51.9272 126.57L89.5268 103.363L76.5537 96.3774Z" fill="#EED3AE"/>
<path d="M38.9652 119.583L39.1981 127.411L52.16 134.397L51.9272 126.568L38.9652 119.583Z" fill="#AF9371"/>
<path d="M89.5265 103.363L89.7593 111.18L52.1598 134.399L51.9269 126.571L89.5265 103.363Z" fill="#967353"/>
<path d="M52.3818 74.5117L90.6467 96.5991L77.8954 103.973L39.6306 81.8742L52.3818 74.5117Z" fill="#EED3AE"/>
<path d="M90.6468 96.5996V104.428L77.8955 111.79V103.973L90.6468 96.5996Z" fill="#AD8D66"/>
<path d="M39.6305 81.8735V89.7017L77.8954 111.789V103.972L39.6305 81.8735Z" fill="#B99E79"/>
<path d="M26.092 89.7017L64.3568 111.8L51.6056 119.163L13.3407 97.0641L26.092 89.7017Z" fill="#EED3AE"/>
<path d="M64.357 111.79V119.618L51.6057 126.981V119.164L64.357 111.79Z" fill="#AD8D66"/>
<path d="M13.3407 97.0649V104.893L51.6056 126.98V119.163L13.3407 97.0649Z" fill="#B99E79"/>
<path d="M53.025 66.1294L14.7602 88.2279L27.5225 95.5903L65.7874 73.4919L53.025 66.1294Z" fill="#EED3AE"/>
<path d="M14.7601 88.2163V96.0445L27.5224 103.407V95.5899L14.7601 88.2163Z" fill="#AF9371"/>
<path d="M65.7873 73.4917V81.3199L27.5224 103.407V95.5902L65.7873 73.4917Z" fill="#AD8D66"/>
<path d="M77.108 81.3198L38.8542 103.418L51.6055 110.781L89.8703 88.6823L77.108 81.3198Z" fill="#EED3AE"/>
<path d="M38.8542 103.418V111.235L51.6054 118.609V110.78L38.8542 103.418Z" fill="#B99E79"/>
<path d="M89.8703 88.6812V96.5093L51.6055 118.608V110.78L89.8703 88.6812Z" fill="#A3825F"/>
<path d="M52.3818 57.9897L90.6467 80.0771L77.8954 87.4396L39.6306 65.3522L52.3818 57.9897Z" fill="#EED3AE"/>
<path d="M90.6468 80.0767V87.9048L77.8955 95.2673V87.4391L90.6468 80.0767Z" fill="#967353"/>
<path d="M39.6305 65.353V73.1812L77.8954 95.2686V87.4404L39.6305 65.353Z" fill="#B99E79"/>
<path d="M26.092 73.1812L64.3568 95.2685L51.6056 102.631L13.3407 80.5436L26.092 73.1812Z" fill="#EED3AE"/>
<path d="M64.357 95.2686V103.097L51.6057 110.459V102.631L64.357 95.2686Z" fill="#AD8D66"/>
<path d="M13.3407 80.5449V88.3731L51.6056 110.46V102.632L13.3407 80.5449Z" fill="#A38666"/>
<path d="M63.9688 57.2026L25.704 79.29L38.4552 86.6636L76.7201 64.5651L63.9688 57.2026Z" fill="#EED3AE"/>
<path d="M25.7039 79.291V87.1192L38.4552 94.4816V86.6646L25.7039 79.291Z" fill="#B99E79"/>
<path d="M76.7201 64.5645V72.3926L38.4552 94.48V86.6629L76.7201 64.5645Z" fill="#AD8D66"/>
<path d="M52.3818 41.4692L90.6467 63.5566L77.8954 70.9191L39.6306 48.8317L52.3818 41.4692Z" fill="#EED3AE"/>
<path d="M90.6468 63.5571V71.3742L77.8955 78.7478V70.9196L90.6468 63.5571Z" fill="#AD8D66"/>
<path d="M39.6305 48.8315V56.6486L77.8954 78.7471V70.9189L39.6305 48.8315Z" fill="#B99E79"/>
<path d="M39.2423 49.0659L77.5072 71.1533L64.7448 78.5158L26.48 56.4284L39.2423 49.0659Z" fill="#EED3AE"/>
<path d="M77.5073 71.1523V78.9805L64.745 86.343V78.5148L77.5073 71.1523Z" fill="#A3825F"/>
<path d="M26.48 56.4268V64.2438L64.7449 86.3423V78.5141L26.48 56.4268Z" fill="#B99E79"/>
<path d="M26.092 56.6592L64.3568 78.7466L51.6056 86.109L13.3407 64.0216L26.092 56.6592Z" fill="#EED3AE"/>
<path d="M64.357 78.7471V86.5752L51.6057 93.9377V86.1095L64.357 78.7471Z" fill="#AD8D66"/>
<path d="M13.3407 64.022V71.839L51.6056 93.9375V86.1094L13.3407 64.022Z" fill="#AF9371"/>
<path d="M50.8184 33.0864L12.5536 55.1738L25.3159 62.5363L63.5808 40.4489L50.8184 33.0864Z" fill="#EED3AE"/>
<path d="M12.5535 55.1729V63.001L25.3158 70.3635V62.5353L12.5535 55.1729Z" fill="#B99E79"/>
<path d="M63.5809 40.4482V48.2653L25.316 70.3638V62.5356L63.5809 40.4482Z" fill="#AD8D66"/>
<path d="M63.9689 40.6816L25.704 62.769L38.4553 70.1315L76.7201 48.0441L63.9689 40.6816Z" fill="#EED3AE"/>
<path d="M25.7039 62.7695V70.5977L38.4552 77.9602V70.132L25.7039 62.7695Z" fill="#B99E79"/>
<path d="M76.7201 48.0449V55.8731L38.4552 77.9605V70.1323L76.7201 48.0449Z" fill="#AD8D66"/>
<path d="M78.2169 48.2773L39.952 70.3647L52.7033 77.7272L90.9681 55.6398L78.2169 48.2773Z" fill="#EED3AE"/>
<path d="M39.9521 70.3638V78.1919L52.7033 85.5544V77.7262L39.9521 70.3638Z" fill="#B99E79"/>
<path d="M90.9683 55.6411V63.4693L52.7034 85.5567V77.7285L90.9683 55.6411Z" fill="#A3825F"/>
<path d="M39.2423 32.5317L77.5072 54.6302L64.7448 61.9927L26.48 39.8942L39.2423 32.5317Z" fill="#EED3AE"/>
<path d="M77.5073 54.6318V62.4489L64.745 69.8225V61.9943L77.5073 54.6318Z" fill="#AD8D66"/>
<path d="M26.48 39.895V47.7232L64.7449 69.8217V61.9935L26.48 39.895Z" fill="#B99E79"/>
<path d="M50.8185 16.5532L12.5536 38.6517L25.316 46.0142L63.5809 23.9268L50.8185 16.5532Z" fill="#EED3AE"/>
<path d="M12.5535 38.6523V46.4694L25.3158 53.843V46.0148L12.5535 38.6523Z" fill="#B99E79"/>
<path d="M63.5809 23.9272V31.7443L25.316 53.8428V46.0146L63.5809 23.9272Z" fill="#AD8D66"/>
<path d="M63.9688 24.1499L25.704 46.2484L38.4552 53.6108L76.7201 31.5235L63.9688 24.1499Z" fill="#EED3AE"/>
<path d="M25.7039 46.2485V54.0656L38.4552 61.4392V53.611L25.7039 46.2485Z" fill="#B99E79"/>
<path d="M76.7201 31.5225V39.3395L38.4552 61.438V53.6099L76.7201 31.5225Z" fill="#AD8D66"/>
<path d="M77.108 31.7563L38.8542 53.8437L51.6055 61.2062L89.8703 39.1188L77.108 31.7563Z" fill="#EED3AE"/>
<path d="M38.8542 53.8442V61.6724L51.6054 69.0349V61.2067L38.8542 53.8442Z" fill="#A38666"/>
<path d="M89.8703 39.1196V46.9367L51.6055 69.0352V61.207L89.8703 39.1196Z" fill="#AD8D66"/>
<path d="M52.3818 8.41504L90.6467 30.5024L77.8954 37.876L39.6306 15.7775L52.3818 8.41504Z" fill="#EED3AE"/>
<path d="M90.6468 30.5039V38.3321L77.8955 45.6945V37.8775L90.6468 30.5039Z" fill="#967353"/>
<path d="M39.6305 15.7778V23.606L77.8954 45.6934V37.8763L39.6305 15.7778Z" fill="#B99E79"/>
<path d="M26.092 23.6064L64.3568 45.7049L51.6056 53.0674L13.3407 30.9689L26.092 23.6064Z" fill="#EED3AE"/>
<path d="M64.357 45.6929V53.521L51.6057 60.8835V53.0664L64.357 45.6929Z" fill="#AD8D66"/>
<path d="M13.3407 30.9688V38.7969L51.6056 60.8843V53.0672L13.3407 30.9688Z" fill="#AF9371"/>
<path d="M50.8184 0.0336914L12.5536 22.1322L25.3159 29.4946L63.5808 7.39615L50.8184 0.0336914Z" fill="#EED3AE"/>
<path d="M12.5535 22.1206V29.9488L25.3158 37.3112V29.4942L12.5535 22.1206Z" fill="#A38666"/>
<path d="M63.5809 7.39551V15.2237L25.316 37.3111V29.494L63.5809 7.39551Z" fill="#AD8D66"/>
<path d="M63.9688 7.62793L25.704 29.7264L38.4552 37.0889L76.7201 14.9904L63.9688 7.62793Z" fill="#EED3AE"/>
<path d="M25.7039 29.7271V37.5441L38.4552 44.9066V37.0895L25.7039 29.7271Z" fill="#AF9371"/>
<path d="M76.7201 14.9917V22.8199L38.4552 44.9073V37.0902L76.7201 14.9917Z" fill="#AD8D66"/>
<path d="M77.108 15.2236L38.8542 37.3221L51.6055 44.6846L89.8703 22.5861L77.108 15.2236Z" fill="#EED3AE"/>
<path d="M38.8542 37.3223V45.1393L51.6054 52.5129V44.6847L38.8542 37.3223Z" fill="#B99E79"/>
<path d="M89.8703 22.5864V30.4146L51.6055 52.5131V44.6849L89.8703 22.5864Z" fill="#A3825F"/>
<path d="M41.2492 0L78.4164 23.9058L65.3214 30.6474L28.1542 6.74153L41.2492 0Z" fill="#EED3AE"/>
<path d="M78.4164 23.9058L78.0394 31.7117L64.9445 38.4644L65.3215 30.6473L78.4164 23.9058Z" fill="#AD8D66"/>
<path d="M28.1545 6.7417L27.7886 14.5588L64.9446 38.4646L65.3216 30.6475L28.1545 6.7417Z" fill="#B99E79"/>
<defs>
<filter id="filter0_f_111_2583" x="0.302429" y="99.3628" width="102.959" height="63.0425" filterUnits="userSpaceOnUse" color-interpolation-filters="sRGB">
<feFlood flood-opacity="0" result="BackgroundImageFix"/>
<feBlend mode="normal" in="SourceGraphic" in2="BackgroundImageFix" result="shape"/>
<feGaussianBlur stdDeviation="2" result="effect1_foregroundBlur_111_2583"/>
</filter>
</defs>
</svg>
