<svg width="24" height="24" viewBox="0 0 24 24" fill="none" xmlns="http://www.w3.org/2000/svg">
<g id="jt-link">
<path id="Vector (Stroke)" fill-rule="evenodd" clip-rule="evenodd" d="M12.7161 5.01612C14.4042 3.32796 17.1957 3.32796 18.8838 5.01612C20.572 6.70427 20.572 9.49573 18.8838 11.1839L15.803 14.2647C14.3366 15.8525 11.9505 15.936 10.3066 14.8401C9.73216 14.4571 9.57695 13.681 9.95989 13.1066C10.3428 12.5322 11.1189 12.377 11.6933 12.7599C12.4412 13.2585 13.4394 13.1483 13.975 12.5592C13.9884 12.5445 14.002 12.5301 14.0161 12.5161L17.1161 9.41612C17.8279 8.70427 17.8279 7.49573 17.1161 6.78388C16.4297 6.09752 15.2816 6.07295 14.5622 6.71017L14.44 6.89337C14.0571 7.46779 13.281 7.623 12.7066 7.24006C12.1322 6.85712 11.9769 6.08104 12.3599 5.50663L12.5599 5.20663C12.6055 5.13814 12.6579 5.07432 12.7161 5.01612Z" fill="#3D3030"/>
<path id="Vector (Stroke)_2" fill-rule="evenodd" clip-rule="evenodd" d="M8.1591 9.675C9.63134 8.3366 11.897 7.98524 13.6499 9.29992C14.2022 9.71414 14.3142 10.4976 13.8999 11.0499C13.4857 11.6022 12.7022 11.7141 12.1499 11.2999C11.5107 10.8205 10.5911 10.8621 9.86729 11.5011L6.79774 14.6697L6.78382 14.6838C6.07198 15.3957 6.07198 16.6042 6.78382 17.316C7.49567 18.0279 8.70421 18.0279 9.41606 17.316L10.2999 18.1999L9.41606 17.316L9.71606 17.016C10.2042 16.5279 10.9957 16.5279 11.4838 17.016C11.972 17.5042 11.972 18.2957 11.4838 18.7838L11.1838 19.0838C9.49567 20.772 6.70421 20.772 5.01606 19.0838C3.33044 17.3982 3.3279 14.6126 5.00845 12.9237L8.10214 9.73018C8.12054 9.71119 8.13953 9.69278 8.1591 9.675Z" fill="#3D3030"/>
</g>
</svg>
